<mxfile host="app.diagrams.net" modified="2020-10-28T00:52:48.777Z" agent="5.0 (Windows NT 10.0; Win64; x64) AppleWebKit/537.36 (KHTML, like Gecko) Chrome/86.0.4240.111 Safari/537.36" etag="xtJ2z4Y_eAFsnuWaZ7lk" version="13.8.5" type="github">
  <diagram id="Nf1b4poC4keHyqEN5iDt" name="Page-1">
    <mxGraphModel dx="1422" dy="794" grid="1" gridSize="10" guides="1" tooltips="1" connect="1" arrows="1" fold="1" page="1" pageScale="1" pageWidth="827" pageHeight="1169" math="0" shadow="0">
      <root>
        <mxCell id="0" />
        <mxCell id="1" parent="0" />
        <mxCell id="raJbp1dszPmFquW9D0bj-2" value="" style="rounded=0;whiteSpace=wrap;html=1;" vertex="1" parent="1">
          <mxGeometry x="80" y="120" width="690" height="380" as="geometry" />
        </mxCell>
        <mxCell id="raJbp1dszPmFquW9D0bj-5" style="edgeStyle=orthogonalEdgeStyle;rounded=0;orthogonalLoop=1;jettySize=auto;html=1;" edge="1" parent="1" source="raJbp1dszPmFquW9D0bj-3" target="raJbp1dszPmFquW9D0bj-4">
          <mxGeometry relative="1" as="geometry" />
        </mxCell>
        <mxCell id="raJbp1dszPmFquW9D0bj-3" value="test" style="rounded=0;whiteSpace=wrap;html=1;" vertex="1" parent="1">
          <mxGeometry x="130" y="170" width="140" height="60" as="geometry" />
        </mxCell>
        <mxCell id="raJbp1dszPmFquW9D0bj-4" value="test" style="rounded=0;whiteSpace=wrap;html=1;" vertex="1" parent="1">
          <mxGeometry x="340" y="170" width="120" height="60" as="geometry" />
        </mxCell>
      </root>
    </mxGraphModel>
  </diagram>
</mxfile>
